<svg id="attach" xmlns="http://www.w3.org/2000/svg" width="24" height="24" viewBox="0 0 24 24">
  <rect id="Rectangle_505" data-name="Rectangle 505" width="24" height="24" opacity="0"/>
  <path id="Path_238" data-name="Path 238" d="M8.491,18a5.541,5.541,0,0,1-3.868-1.583,4.926,4.926,0,0,1-.192-7.149L10.858,3.01A3.66,3.66,0,0,1,13.477,2a3.985,3.985,0,0,1,2.786,1.137A3.579,3.579,0,0,1,16.394,8.3L9.932,14.555a2.26,2.26,0,0,1-1.581.632,2.42,2.42,0,0,1-1.7-.69,2.2,2.2,0,0,1-.07-3.175l5.964-5.776a.9.9,0,0,1,1.109.115.82.82,0,0,1,.087,1.073L7.775,12.509a.558.558,0,0,0,.07.8.693.693,0,0,0,.463.194.5.5,0,0,0,.349-.135L15.11,7.111a1.937,1.937,0,0,0-.131-2.787A2.134,2.134,0,0,0,12.124,4.2L5.671,10.42a3.284,3.284,0,0,0,.192,4.774,3.752,3.752,0,0,0,2.62,1.086,3.268,3.268,0,0,0,2.279-.893l6.453-6.256a.9.9,0,0,1,1.236,0,.821.821,0,0,1,0,1.192L12,16.576A5.026,5.026,0,0,1,8.491,18Z" transform="translate(1.013 2.001)" fill="#808d93"/>
</svg>
